<svg width="128" height="60" viewBox="0 0 128 60" fill="none" xmlns="http://www.w3.org/2000/svg">
<rect width="128" height="60" fill="#E5E5E5"/>
<g clip-path="url(#clip0_891_3857)" filter="url(#filter0_d_891_3857)">
<rect width="1280" height="1908" transform="translate(-1096 -10)" fill="#202020"/>
<rect x="-1096" y="-10" width="1280" height="74" fill="#202020"/>
<g filter="url(#filter1_d_891_3857)">
<rect x="14" y="11" width="100" height="32" rx="16" fill="#202020"/>
</g>
<text fill="white" xml:space="preserve" style="white-space: pre" font-family="Inter" font-size="13" font-weight="500" letter-spacing="0px"><tspan x="25" y="31.2273">&#x410;&#x43a;&#x43a;&#x430;&#x443;&#x43d;&#x442;</tspan></text>
<rect x="85" y="14" width="26" height="26" rx="13" fill="#313131"/>
<path fill-rule="evenodd" clip-rule="evenodd" d="M99.4299 28.9678C100.792 28.4057 101.75 27.0648 101.75 25.5C101.75 23.4289 100.071 21.75 98.0001 21.75C95.929 21.75 94.2501 23.4289 94.2501 25.5C94.2501 27.0647 95.2085 28.4056 96.5702 28.9677C95.1756 29.1999 93.8926 29.7659 92.8083 30.5806L94.1899 32.4194C95.2512 31.6221 96.5687 31.15 97.9999 31.15C99.431 31.15 100.749 31.6221 101.81 32.4194L103.191 30.5806C102.107 29.766 100.824 29.2 99.4299 28.9678Z" fill="white"/>
</g>
<defs>
<filter id="filter0_d_891_3857" x="-1100" y="-10" width="1288" height="1916" filterUnits="userSpaceOnUse" color-interpolation-filters="sRGB">
<feFlood flood-opacity="0" result="BackgroundImageFix"/>
<feColorMatrix in="SourceAlpha" type="matrix" values="0 0 0 0 0 0 0 0 0 0 0 0 0 0 0 0 0 0 127 0" result="hardAlpha"/>
<feOffset dy="4"/>
<feGaussianBlur stdDeviation="2"/>
<feComposite in2="hardAlpha" operator="out"/>
<feColorMatrix type="matrix" values="0 0 0 0 0 0 0 0 0 0 0 0 0 0 0 0 0 0 0.25 0"/>
<feBlend mode="normal" in2="BackgroundImageFix" result="effect1_dropShadow_891_3857"/>
<feBlend mode="normal" in="SourceGraphic" in2="effect1_dropShadow_891_3857" result="shape"/>
</filter>
<filter id="filter1_d_891_3857" x="0" y="0" width="128" height="60" filterUnits="userSpaceOnUse" color-interpolation-filters="sRGB">
<feFlood flood-opacity="0" result="BackgroundImageFix"/>
<feColorMatrix in="SourceAlpha" type="matrix" values="0 0 0 0 0 0 0 0 0 0 0 0 0 0 0 0 0 0 127 0" result="hardAlpha"/>
<feOffset dy="3"/>
<feGaussianBlur stdDeviation="7"/>
<feColorMatrix type="matrix" values="0 0 0 0 0 0 0 0 0 0 0 0 0 0 0 0 0 0 0.08 0"/>
<feBlend mode="normal" in2="BackgroundImageFix" result="effect1_dropShadow_891_3857"/>
<feBlend mode="normal" in="SourceGraphic" in2="effect1_dropShadow_891_3857" result="shape"/>
</filter>
<clipPath id="clip0_891_3857">
<rect width="1280" height="1908" fill="white" transform="translate(-1096 -10)"/>
</clipPath>
</defs>
</svg>
